<svg width="105" height="105" viewBox="0 0 105 105" fill="none" xmlns="http://www.w3.org/2000/svg">
<path d="M72.3061 86.2192H16.9957C14.8385 86.2192 12.7696 85.3622 11.2442 83.8368C9.71884 82.3115 8.86188 80.2426 8.86188 78.0853V74.8318H64.1722V78.0853C64.1722 80.2426 65.0292 82.3115 66.5546 83.8368C68.0799 85.3622 70.1488 86.2192 72.3061 86.2192V86.2192Z" fill="#B4CDE1"/>
<path d="M96.7078 26.0285V29.2821H80.4401V26.0285C80.4401 23.8713 81.297 21.8024 82.8224 20.277C84.3478 18.7516 86.4167 17.8947 88.5739 17.8947C90.7312 17.8947 92.8001 18.7516 94.3254 20.277C95.8508 21.8024 96.7078 23.8713 96.7078 26.0285V26.0285Z" fill="#B4CDE1"/>
<path d="M33.2635 17.8947C31.1062 17.8947 29.0374 18.7516 27.512 20.277C25.9866 21.8024 25.1296 23.8713 25.1296 26.0285V74.8317H64.1722V78.0853C64.1722 80.2425 65.0291 82.3114 66.5545 83.8368C68.0799 85.3622 70.1488 86.2192 72.3061 86.2192C74.4633 86.2192 76.5322 85.3622 78.0576 83.8368C79.583 82.3114 80.4399 80.2425 80.4399 78.0853V73.205H70.6793V68.3246H69.0525V67.9505C69.0504 67.1445 69.2075 66.346 69.515 65.601C69.8224 64.8559 70.2741 64.179 70.844 63.6091C71.4139 63.0391 72.0909 62.5875 72.8359 62.28C73.581 61.9726 74.3795 61.8154 75.1854 61.8175C76.1476 61.8175 77.0703 61.4353 77.7506 60.755C78.4309 60.0747 78.8132 59.152 78.8132 58.1898V56.254C78.6816 51.6821 77.7168 47.1725 75.9663 42.947C75.6984 42.2175 75.5608 41.4466 75.5596 40.6695C75.5607 39.2277 76.0406 37.8271 76.9239 36.6877C77.8072 35.5482 79.0439 34.7343 80.4399 34.3739V26.0285C80.4399 23.8713 81.2969 21.8024 82.8223 20.277C84.3477 18.7516 86.4166 17.8947 88.5738 17.8947H33.2635ZM70.6793 37.4159H34.8903C34.4588 37.4159 34.045 37.2445 33.7399 36.9395C33.4349 36.6344 33.2635 36.2206 33.2635 35.7892C33.2635 35.3577 33.4349 34.9439 33.7399 34.6389C34.045 34.3338 34.4588 34.1624 34.8903 34.1624H70.6793C71.1107 34.1624 71.5245 34.3338 71.8296 34.6389C72.1347 34.9439 72.3061 35.3577 72.3061 35.7892C72.3061 36.2206 72.1347 36.6344 71.8296 36.9395C71.5245 37.2445 71.1107 37.4159 70.6793 37.4159ZM70.6793 29.2821H34.8903C34.4588 29.2821 34.045 29.1107 33.7399 28.8056C33.4349 28.5005 33.2635 28.0867 33.2635 27.6553C33.2635 27.2238 33.4349 26.8101 33.7399 26.505C34.045 26.1999 34.4588 26.0285 34.8903 26.0285H70.6793C71.1107 26.0285 71.5245 26.1999 71.8296 26.505C72.1347 26.8101 72.3061 27.2238 72.3061 27.6553C72.3061 28.0867 72.1347 28.5005 71.8296 28.8056C71.5245 29.1107 71.1107 29.2821 70.6793 29.2821Z" fill="url(#paint0_linear_104_1453)"/>
<path d="M93.4541 68.3245H70.6792V73.2048H93.4541V68.3245Z" fill="#4795EA"/>
<path d="M93.4541 68.3245H70.6792V73.2048H93.4541V68.3245Z" fill="url(#paint1_linear_104_1453)"/>
<path d="M93.4541 68.3245H70.6792V73.2048H93.4541V68.3245Z" fill="url(#paint2_linear_104_1453)"/>
<path d="M95.0811 67.9505V68.3246H69.0527V67.9505C69.0505 67.1445 69.2077 66.346 69.5152 65.601C69.8226 64.8559 70.2743 64.179 70.8442 63.6091C71.4141 63.0391 72.0911 62.5875 72.8361 62.28C73.5812 61.9726 74.3796 61.8154 75.1856 61.8175C76.1478 61.8175 77.0705 61.4353 77.7508 60.755C78.4311 60.0747 78.8133 59.152 78.8133 58.1898V56.254C78.6818 51.6821 77.717 47.1725 75.9665 42.947C75.6986 42.2175 75.561 41.4466 75.5598 40.6695C75.5609 39.2277 76.0407 37.8271 76.9241 36.6877C77.8074 35.5482 79.0441 34.7343 80.4401 34.3739C81.5071 34.0984 82.6266 34.0984 83.6937 34.3739C84.8206 34.6623 85.8497 35.2475 86.6737 36.0686C87.4976 36.8897 88.0865 37.9168 88.3788 39.0427C88.6879 40.2619 88.637 41.5446 88.2324 42.7355C86.4593 47.4552 85.4754 52.4347 85.3204 57.4741V58.1898C85.3204 59.152 85.7026 60.0747 86.383 60.755C87.0633 61.4353 87.986 61.8175 88.9481 61.8175C89.7535 61.8175 90.551 61.9762 91.2951 62.2844C92.0392 62.5926 92.7153 63.0443 93.2848 63.6138C93.8543 64.1833 94.306 64.8594 94.6142 65.6035C94.9224 66.3476 95.0811 67.1451 95.0811 67.9505V67.9505Z" fill="url(#paint3_linear_104_1453)"/>
<path d="M95.0811 67.9505V68.3246H69.0527V67.9505C69.0505 67.1445 69.2077 66.346 69.5152 65.601C69.8226 64.8559 70.2743 64.179 70.8442 63.6091C71.4141 63.0391 72.0911 62.5875 72.8361 62.28C73.5812 61.9726 74.3796 61.8154 75.1856 61.8175C76.1478 61.8175 77.0705 61.4353 77.7508 60.755C78.4311 60.0747 78.8133 59.152 78.8133 58.1898V56.254C78.6818 51.6821 77.717 47.1725 75.9665 42.947C75.6986 42.2175 75.561 41.4466 75.5598 40.6695C75.5609 39.2277 76.0407 37.8271 76.9241 36.6877C77.8074 35.5482 79.0441 34.7343 80.4401 34.3739C81.5071 34.0984 82.6266 34.0984 83.6937 34.3739C84.8206 34.6623 85.8497 35.2475 86.6737 36.0686C87.4976 36.8897 88.0865 37.9168 88.3788 39.0427C88.6879 40.2619 88.637 41.5446 88.2324 42.7355C86.4593 47.4552 85.4754 52.4347 85.3204 57.4741V58.1898C85.3204 59.152 85.7026 60.0747 86.383 60.755C87.0633 61.4353 87.986 61.8175 88.9481 61.8175C89.7535 61.8175 90.551 61.9762 91.2951 62.2844C92.0392 62.5926 92.7153 63.0443 93.2848 63.6138C93.8543 64.1833 94.306 64.8594 94.6142 65.6035C94.9224 66.3476 95.0811 67.1451 95.0811 67.9505V67.9505Z" fill="url(#paint4_linear_104_1453)"/>
<path d="M95.0811 67.9505V68.3246H69.0527V67.9505C69.0505 67.1445 69.2077 66.346 69.5152 65.601C69.8226 64.8559 70.2743 64.179 70.8442 63.6091C71.4141 63.0391 72.0911 62.5875 72.8361 62.28C73.5812 61.9726 74.3796 61.8154 75.1856 61.8175C76.1478 61.8175 77.0705 61.4353 77.7508 60.755C78.4311 60.0747 78.8133 59.152 78.8133 58.1898V56.254C78.6818 51.6821 77.717 47.1725 75.9665 42.947C75.6986 42.2175 75.561 41.4466 75.5598 40.6695C75.5609 39.2277 76.0407 37.8271 76.9241 36.6877C77.8074 35.5482 79.0441 34.7343 80.4401 34.3739C81.5071 34.0984 82.6266 34.0984 83.6937 34.3739C84.8206 34.6623 85.8497 35.2475 86.6737 36.0686C87.4976 36.8897 88.0865 37.9168 88.3788 39.0427C88.6879 40.2619 88.637 41.5446 88.2324 42.7355C86.4593 47.4552 85.4754 52.4347 85.3204 57.4741V58.1898C85.3204 59.152 85.7026 60.0747 86.383 60.755C87.0633 61.4353 87.986 61.8175 88.9481 61.8175C89.7535 61.8175 90.551 61.9762 91.2951 62.2844C92.0392 62.5926 92.7153 63.0443 93.2848 63.6138C93.8543 64.1833 94.306 64.8594 94.6142 65.6035C94.9224 66.3476 95.0811 67.1451 95.0811 67.9505V67.9505Z" fill="url(#paint5_linear_104_1453)"/>
<path d="M49.5314 69.9515C46.0798 69.9515 42.7696 68.5803 40.329 66.1397C37.8883 63.6991 36.5172 60.3889 36.5172 56.9373C36.5172 53.4857 37.8883 50.1755 40.329 47.7349C42.7696 45.2942 46.0798 43.9231 49.5314 43.9231C52.4871 43.889 55.3627 44.8839 57.6653 46.7374C57.8319 46.872 57.9704 47.0381 58.0728 47.2262C58.1753 47.4143 58.2397 47.6208 58.2623 47.8337C58.285 48.0467 58.2655 48.2621 58.2049 48.4676C58.1443 48.673 58.0439 48.8645 57.9093 49.0312C57.7747 49.1978 57.6086 49.3363 57.4205 49.4387C57.2324 49.5412 57.0259 49.6056 56.813 49.6282C56.6 49.6509 56.3846 49.6314 56.1791 49.5708C55.9737 49.5102 55.7822 49.4098 55.6155 49.2752C53.8948 47.8867 51.7423 47.1442 49.5314 47.1766C47.6009 47.1766 45.7138 47.7491 44.1087 48.8216C42.5036 49.8941 41.2525 51.4185 40.5137 53.202C39.775 54.9856 39.5817 56.9481 39.9583 58.8415C40.3349 60.7349 41.2645 62.4741 42.6296 63.8391C43.9946 65.2042 45.7338 66.1338 47.6272 66.5104C49.5206 66.887 51.4831 66.6937 53.2666 65.955C55.0502 65.2162 56.5746 63.9651 57.6471 62.36C58.7196 60.7549 59.292 58.8678 59.292 56.9373C59.2549 56.7245 59.2604 56.5065 59.3084 56.2959C59.3564 56.0853 59.4459 55.8864 59.5716 55.7107C59.6973 55.535 59.8567 55.3862 60.0405 55.2728C60.2243 55.1594 60.4289 55.0837 60.6423 55.0502C61.0672 54.9796 61.5027 55.0804 61.8534 55.3305C62.2041 55.5805 62.4414 55.9595 62.5131 56.3842C62.5401 56.5672 62.551 56.7523 62.5456 56.9373C62.5456 60.3889 61.1745 63.6991 58.7338 66.1397C56.2932 68.5803 52.983 69.9515 49.5314 69.9515Z" fill="#B4CDE1"/>
<path d="M49.5314 63.4444C49.3173 63.4456 49.1051 63.4046 48.9069 63.3236C48.7087 63.2427 48.5284 63.1234 48.3764 62.9726L43.4961 58.0923C43.1898 57.786 43.0177 57.3705 43.0177 56.9373C43.0177 56.5041 43.1898 56.0886 43.4961 55.7823C43.8024 55.476 44.2179 55.3039 44.6511 55.3039C45.0843 55.3039 45.4998 55.476 45.8061 55.7823L49.5314 59.5239L63.0174 46.0216C63.1691 45.87 63.3491 45.7496 63.5473 45.6675C63.7455 45.5855 63.9579 45.5432 64.1724 45.5432C64.3869 45.5432 64.5993 45.5855 64.7975 45.6675C64.9957 45.7496 65.1757 45.87 65.3274 46.0216C65.4791 46.1733 65.5994 46.3534 65.6815 46.5516C65.7636 46.7497 65.8058 46.9621 65.8058 47.1766C65.8058 47.3911 65.7636 47.6036 65.6815 47.8017C65.5994 47.9999 65.4791 48.18 65.3274 48.3317L50.6864 62.9726C50.5344 63.1234 50.3542 63.2427 50.156 63.3236C49.9577 63.4046 49.7455 63.4456 49.5314 63.4444Z" fill="url(#paint6_linear_104_1453)"/>
<path d="M49.5314 63.4444C49.3173 63.4456 49.1051 63.4046 48.9069 63.3236C48.7087 63.2427 48.5284 63.1234 48.3764 62.9726L43.4961 58.0923C43.1898 57.786 43.0177 57.3705 43.0177 56.9373C43.0177 56.5041 43.1898 56.0886 43.4961 55.7823C43.8024 55.476 44.2179 55.3039 44.6511 55.3039C45.0843 55.3039 45.4998 55.476 45.8061 55.7823L49.5314 59.5239L63.0174 46.0216C63.1691 45.87 63.3491 45.7496 63.5473 45.6675C63.7455 45.5855 63.9579 45.5432 64.1724 45.5432C64.3869 45.5432 64.5993 45.5855 64.7975 45.6675C64.9957 45.7496 65.1757 45.87 65.3274 46.0216C65.4791 46.1733 65.5994 46.3534 65.6815 46.5516C65.7636 46.7497 65.8058 46.9621 65.8058 47.1766C65.8058 47.3911 65.7636 47.6036 65.6815 47.8017C65.5994 47.9999 65.4791 48.18 65.3274 48.3317L50.6864 62.9726C50.5344 63.1234 50.3542 63.2427 50.156 63.3236C49.9577 63.4046 49.7455 63.4456 49.5314 63.4444Z" fill="url(#paint7_linear_104_1453)"/>
<path d="M70.6794 29.282H34.8904C34.459 29.282 34.0452 29.1106 33.7401 28.8055C33.435 28.5004 33.2636 28.0867 33.2636 27.6552C33.2636 27.2238 33.435 26.81 33.7401 26.5049C34.0452 26.1998 34.459 26.0284 34.8904 26.0284H70.6794C71.1109 26.0284 71.5247 26.1998 71.8297 26.5049C72.1348 26.81 72.3062 27.2238 72.3062 27.6552C72.3062 28.0867 72.1348 28.5004 71.8297 28.8055C71.5247 29.1106 71.1109 29.282 70.6794 29.282Z" fill="#9DB8D3"/>
<path d="M70.6794 37.416H34.8904C34.459 37.416 34.0452 37.2446 33.7401 36.9396C33.435 36.6345 33.2636 36.2207 33.2636 35.7892C33.2636 35.3578 33.435 34.944 33.7401 34.6389C34.0452 34.3339 34.459 34.1625 34.8904 34.1625H70.6794C71.1109 34.1625 71.5247 34.3339 71.8297 34.6389C72.1348 34.944 72.3062 35.3578 72.3062 35.7892C72.3062 36.2207 72.1348 36.6345 71.8297 36.9396C71.5247 37.2446 71.1109 37.416 70.6794 37.416Z" fill="#9DB8D3"/>
<defs>
<linearGradient id="paint0_linear_104_1453" x1="56.8517" y1="86.2192" x2="56.8517" y2="17.8947" gradientUnits="userSpaceOnUse">
<stop stop-color="#D3E6F5"/>
<stop offset="1" stop-color="#F0F7FC"/>
</linearGradient>
<linearGradient id="paint1_linear_104_1453" x1="70.6792" y1="68.3245" x2="72.679" y2="77.6566" gradientUnits="userSpaceOnUse">
<stop stop-color="#2AA6DA"/>
<stop offset="1" stop-color="#1B7B77"/>
</linearGradient>
<linearGradient id="paint2_linear_104_1453" x1="70.6792" y1="68.3019" x2="71.4716" y2="75.5766" gradientUnits="userSpaceOnUse">
<stop stop-color="#028090"/>
<stop offset="1" stop-color="#00BFB2"/>
</linearGradient>
<linearGradient id="paint3_linear_104_1453" x1="82.0669" y1="68.3246" x2="82.0669" y2="34.1624" gradientUnits="userSpaceOnUse">
<stop stop-color="#54A5FF"/>
<stop offset="1" stop-color="#8AD3FE"/>
</linearGradient>
<linearGradient id="paint4_linear_104_1453" x1="69.0527" y1="34.1672" x2="101.986" y2="59.263" gradientUnits="userSpaceOnUse">
<stop stop-color="#2AA6DA"/>
<stop offset="1" stop-color="#1B7B77"/>
</linearGradient>
<linearGradient id="paint5_linear_104_1453" x1="69.0527" y1="34.0091" x2="92.8367" y2="69.6636" gradientUnits="userSpaceOnUse">
<stop stop-color="#028090"/>
<stop offset="1" stop-color="#00BFB2"/>
</linearGradient>
<linearGradient id="paint6_linear_104_1453" x1="43.0243" y1="54.4971" x2="65.7992" y2="54.4971" gradientUnits="userSpaceOnUse">
<stop stop-color="#FE9661"/>
<stop offset="1" stop-color="#FFB369"/>
</linearGradient>
<linearGradient id="paint7_linear_104_1453" x1="43.0177" y1="45.5432" x2="60.4098" y2="67.6833" gradientUnits="userSpaceOnUse">
<stop stop-color="#FFC200"/>
<stop offset="1" stop-color="#FA0026"/>
</linearGradient>
</defs>
</svg>
