<svg width="105" height="105" viewBox="0 0 105 105" fill="none" xmlns="http://www.w3.org/2000/svg">
<path d="M66.9794 26.0283H62.0991V32.5354H65.3526C65.7841 32.5354 66.1978 32.7068 66.5029 33.0119C66.808 33.317 66.9794 33.7307 66.9794 34.1622C66.9794 34.5936 66.808 35.0074 66.5029 35.3125C66.1978 35.6176 65.7841 35.789 65.3526 35.789H32.8171C32.3857 35.789 31.9719 35.6176 31.6668 35.3125C31.3618 35.0074 31.1904 34.5936 31.1904 34.1622C31.1904 33.7307 31.3618 33.317 31.6668 33.0119C31.9719 32.7068 32.3857 32.5354 32.8171 32.5354H36.0707V26.0283H31.1904C29.4646 26.0283 27.8095 26.7139 26.5892 27.9342C25.3688 29.1545 24.6833 30.8096 24.6833 32.5354V60.1906H49.0849C49.9478 60.1906 50.7753 60.5334 51.3855 61.1435C51.9956 61.7537 52.3384 62.5812 52.3384 63.4441V79.7119C52.3384 80.5748 51.9956 81.4023 51.3855 82.0125C50.7753 82.6226 49.9478 82.9654 49.0849 82.9654H24.6833V84.5922C24.6833 86.318 25.3688 87.9731 26.5892 89.1934C27.8095 90.4137 29.4646 91.0993 31.1904 91.0993H66.9794C68.7052 91.0993 70.3603 90.4137 71.5806 89.1934C72.8009 87.9731 73.4865 86.318 73.4865 84.5922V32.5354C73.4865 30.8096 72.8009 29.1545 71.5806 27.9342C70.3603 26.7139 68.7052 26.0283 66.9794 26.0283V26.0283ZM65.3526 81.3386C65.3526 81.7701 65.1812 82.1839 64.8762 82.4889C64.5711 82.794 64.1573 82.9654 63.7259 82.9654H60.4723C60.0409 82.9654 59.6271 82.794 59.322 82.4889C59.0169 82.1839 58.8455 81.7701 58.8455 81.3386V79.7119C58.8455 79.2804 59.0169 78.8666 59.322 78.5616C59.6271 78.2565 60.0409 78.0851 60.4723 78.0851H63.7259C64.1573 78.0851 64.5711 78.2565 64.8762 78.5616C65.1812 78.8666 65.3526 79.2804 65.3526 79.7119V81.3386ZM65.3526 71.578C65.3526 72.0094 65.1812 72.4232 64.8762 72.7283C64.5711 73.0334 64.1573 73.2048 63.7259 73.2048H60.4723C60.0409 73.2048 59.6271 73.0334 59.322 72.7283C59.0169 72.4232 58.8455 72.0094 58.8455 71.578V69.9512C58.8455 69.5198 59.0169 69.106 59.322 68.8009C59.6271 68.4958 60.0409 68.3244 60.4723 68.3244H63.7259C64.1573 68.3244 64.5711 68.4958 64.8762 68.8009C65.1812 69.106 65.3526 69.5198 65.3526 69.9512V71.578ZM65.3526 61.8173C65.3526 62.2488 65.1812 62.6626 64.8762 62.9677C64.5711 63.2727 64.1573 63.4441 63.7259 63.4441H60.4723C60.0409 63.4441 59.6271 63.2727 59.322 62.9677C59.0169 62.6626 58.8455 62.2488 58.8455 61.8173V60.1906C58.8455 59.7591 59.0169 59.3454 59.322 59.0403C59.6271 58.7352 60.0409 58.5638 60.4723 58.5638H63.7259C64.1573 58.5638 64.5711 58.7352 64.8762 59.0403C65.1812 59.3454 65.3526 59.7591 65.3526 60.1906V61.8173ZM65.3526 48.8032C65.3526 49.2346 65.1812 49.6484 64.8762 49.9535C64.5711 50.2585 64.1573 50.4299 63.7259 50.4299H34.4439C34.0125 50.4299 33.5987 50.2585 33.2936 49.9535C32.9885 49.6484 32.8171 49.2346 32.8171 48.8032V42.2961C32.8171 41.8646 32.9885 41.4508 33.2936 41.1458C33.5987 40.8407 34.0125 40.6693 34.4439 40.6693H63.7259C64.1573 40.6693 64.5711 40.8407 64.8762 41.1458C65.1812 41.4508 65.3526 41.8646 65.3526 42.2961V48.8032Z" fill="url(#paint0_linear_104_1467)"/>
<path d="M66.9794 26.0283H62.0991V32.5354H65.3526C65.7841 32.5354 66.1978 32.7068 66.5029 33.0119C66.808 33.317 66.9794 33.7307 66.9794 34.1622C66.9794 34.5936 66.808 35.0074 66.5029 35.3125C66.1978 35.6176 65.7841 35.789 65.3526 35.789H32.8171C32.3857 35.789 31.9719 35.6176 31.6668 35.3125C31.3618 35.0074 31.1904 34.5936 31.1904 34.1622C31.1904 33.7307 31.3618 33.317 31.6668 33.0119C31.9719 32.7068 32.3857 32.5354 32.8171 32.5354H36.0707V26.0283H31.1904C29.4646 26.0283 27.8095 26.7139 26.5892 27.9342C25.3688 29.1545 24.6833 30.8096 24.6833 32.5354V60.1906H49.0849C49.9478 60.1906 50.7753 60.5334 51.3855 61.1435C51.9956 61.7537 52.3384 62.5812 52.3384 63.4441V79.7119C52.3384 80.5748 51.9956 81.4023 51.3855 82.0125C50.7753 82.6226 49.9478 82.9654 49.0849 82.9654H24.6833V84.5922C24.6833 86.318 25.3688 87.9731 26.5892 89.1934C27.8095 90.4137 29.4646 91.0993 31.1904 91.0993H66.9794C68.7052 91.0993 70.3603 90.4137 71.5806 89.1934C72.8009 87.9731 73.4865 86.318 73.4865 84.5922V32.5354C73.4865 30.8096 72.8009 29.1545 71.5806 27.9342C70.3603 26.7139 68.7052 26.0283 66.9794 26.0283V26.0283ZM65.3526 81.3386C65.3526 81.7701 65.1812 82.1839 64.8762 82.4889C64.5711 82.794 64.1573 82.9654 63.7259 82.9654H60.4723C60.0409 82.9654 59.6271 82.794 59.322 82.4889C59.0169 82.1839 58.8455 81.7701 58.8455 81.3386V79.7119C58.8455 79.2804 59.0169 78.8666 59.322 78.5616C59.6271 78.2565 60.0409 78.0851 60.4723 78.0851H63.7259C64.1573 78.0851 64.5711 78.2565 64.8762 78.5616C65.1812 78.8666 65.3526 79.2804 65.3526 79.7119V81.3386ZM65.3526 71.578C65.3526 72.0094 65.1812 72.4232 64.8762 72.7283C64.5711 73.0334 64.1573 73.2048 63.7259 73.2048H60.4723C60.0409 73.2048 59.6271 73.0334 59.322 72.7283C59.0169 72.4232 58.8455 72.0094 58.8455 71.578V69.9512C58.8455 69.5198 59.0169 69.106 59.322 68.8009C59.6271 68.4958 60.0409 68.3244 60.4723 68.3244H63.7259C64.1573 68.3244 64.5711 68.4958 64.8762 68.8009C65.1812 69.106 65.3526 69.5198 65.3526 69.9512V71.578ZM65.3526 61.8173C65.3526 62.2488 65.1812 62.6626 64.8762 62.9677C64.5711 63.2727 64.1573 63.4441 63.7259 63.4441H60.4723C60.0409 63.4441 59.6271 63.2727 59.322 62.9677C59.0169 62.6626 58.8455 62.2488 58.8455 61.8173V60.1906C58.8455 59.7591 59.0169 59.3454 59.322 59.0403C59.6271 58.7352 60.0409 58.5638 60.4723 58.5638H63.7259C64.1573 58.5638 64.5711 58.7352 64.8762 59.0403C65.1812 59.3454 65.3526 59.7591 65.3526 60.1906V61.8173ZM65.3526 48.8032C65.3526 49.2346 65.1812 49.6484 64.8762 49.9535C64.5711 50.2585 64.1573 50.4299 63.7259 50.4299H34.4439C34.0125 50.4299 33.5987 50.2585 33.2936 49.9535C32.9885 49.6484 32.8171 49.2346 32.8171 48.8032V42.2961C32.8171 41.8646 32.9885 41.4508 33.2936 41.1458C33.5987 40.8407 34.0125 40.6693 34.4439 40.6693H63.7259C64.1573 40.6693 64.5711 40.8407 64.8762 41.1458C65.1812 41.4508 65.3526 41.8646 65.3526 42.2961V48.8032Z" fill="url(#paint1_linear_104_1467)"/>
<path d="M66.9794 26.0283H62.0991V32.5354H65.3526C65.7841 32.5354 66.1978 32.7068 66.5029 33.0119C66.808 33.317 66.9794 33.7307 66.9794 34.1622C66.9794 34.5936 66.808 35.0074 66.5029 35.3125C66.1978 35.6176 65.7841 35.789 65.3526 35.789H32.8171C32.3857 35.789 31.9719 35.6176 31.6668 35.3125C31.3618 35.0074 31.1904 34.5936 31.1904 34.1622C31.1904 33.7307 31.3618 33.317 31.6668 33.0119C31.9719 32.7068 32.3857 32.5354 32.8171 32.5354H36.0707V26.0283H31.1904C29.4646 26.0283 27.8095 26.7139 26.5892 27.9342C25.3688 29.1545 24.6833 30.8096 24.6833 32.5354V60.1906H49.0849C49.9478 60.1906 50.7753 60.5334 51.3855 61.1435C51.9956 61.7537 52.3384 62.5812 52.3384 63.4441V79.7119C52.3384 80.5748 51.9956 81.4023 51.3855 82.0125C50.7753 82.6226 49.9478 82.9654 49.0849 82.9654H24.6833V84.5922C24.6833 86.318 25.3688 87.9731 26.5892 89.1934C27.8095 90.4137 29.4646 91.0993 31.1904 91.0993H66.9794C68.7052 91.0993 70.3603 90.4137 71.5806 89.1934C72.8009 87.9731 73.4865 86.318 73.4865 84.5922V32.5354C73.4865 30.8096 72.8009 29.1545 71.5806 27.9342C70.3603 26.7139 68.7052 26.0283 66.9794 26.0283V26.0283ZM65.3526 81.3386C65.3526 81.7701 65.1812 82.1839 64.8762 82.4889C64.5711 82.794 64.1573 82.9654 63.7259 82.9654H60.4723C60.0409 82.9654 59.6271 82.794 59.322 82.4889C59.0169 82.1839 58.8455 81.7701 58.8455 81.3386V79.7119C58.8455 79.2804 59.0169 78.8666 59.322 78.5616C59.6271 78.2565 60.0409 78.0851 60.4723 78.0851H63.7259C64.1573 78.0851 64.5711 78.2565 64.8762 78.5616C65.1812 78.8666 65.3526 79.2804 65.3526 79.7119V81.3386ZM65.3526 71.578C65.3526 72.0094 65.1812 72.4232 64.8762 72.7283C64.5711 73.0334 64.1573 73.2048 63.7259 73.2048H60.4723C60.0409 73.2048 59.6271 73.0334 59.322 72.7283C59.0169 72.4232 58.8455 72.0094 58.8455 71.578V69.9512C58.8455 69.5198 59.0169 69.106 59.322 68.8009C59.6271 68.4958 60.0409 68.3244 60.4723 68.3244H63.7259C64.1573 68.3244 64.5711 68.4958 64.8762 68.8009C65.1812 69.106 65.3526 69.5198 65.3526 69.9512V71.578ZM65.3526 61.8173C65.3526 62.2488 65.1812 62.6626 64.8762 62.9677C64.5711 63.2727 64.1573 63.4441 63.7259 63.4441H60.4723C60.0409 63.4441 59.6271 63.2727 59.322 62.9677C59.0169 62.6626 58.8455 62.2488 58.8455 61.8173V60.1906C58.8455 59.7591 59.0169 59.3454 59.322 59.0403C59.6271 58.7352 60.0409 58.5638 60.4723 58.5638H63.7259C64.1573 58.5638 64.5711 58.7352 64.8762 59.0403C65.1812 59.3454 65.3526 59.7591 65.3526 60.1906V61.8173ZM65.3526 48.8032C65.3526 49.2346 65.1812 49.6484 64.8762 49.9535C64.5711 50.2585 64.1573 50.4299 63.7259 50.4299H34.4439C34.0125 50.4299 33.5987 50.2585 33.2936 49.9535C32.9885 49.6484 32.8171 49.2346 32.8171 48.8032V42.2961C32.8171 41.8646 32.9885 41.4508 33.2936 41.1458C33.5987 40.8407 34.0125 40.6693 34.4439 40.6693H63.7259C64.1573 40.6693 64.5711 40.8407 64.8762 41.1458C65.1812 41.4508 65.3526 41.8646 65.3526 42.2961V48.8032Z" fill="url(#paint2_linear_104_1467)"/>
<path d="M71.8596 13.0142C69.2709 13.0142 66.7882 14.0425 64.9577 15.873C63.1273 17.7035 62.0989 20.1861 62.0989 22.7748V32.5354H36.0705V22.7748C36.0705 20.1861 37.0989 17.7035 38.9294 15.873C40.7598 14.0425 43.2425 13.0142 45.8312 13.0142H71.8596Z" fill="url(#paint3_linear_104_1467)"/>
<path d="M91.381 69.9514V71.5782C91.381 72.8725 90.8669 74.1139 89.9516 75.0291C89.0364 75.9443 87.7951 76.4585 86.5007 76.4585C85.2064 76.4585 83.965 75.9443 83.0498 75.0291C82.1346 74.1139 81.6204 72.8725 81.6204 71.5782V69.9514H91.381Z" fill="url(#paint4_linear_104_1467)"/>
<path d="M49.0848 60.1907H16.5493C14.7524 60.1907 13.2958 61.6473 13.2958 63.4442V79.712C13.2958 81.5088 14.7524 82.9655 16.5493 82.9655H49.0848C50.8817 82.9655 52.3384 81.5088 52.3384 79.712V63.4442C52.3384 61.6473 50.8817 60.1907 49.0848 60.1907Z" fill="url(#paint5_linear_104_1467)"/>
<path d="M49.0848 60.1907H16.5493C14.7524 60.1907 13.2958 61.6473 13.2958 63.4442V79.712C13.2958 81.5088 14.7524 82.9655 16.5493 82.9655H49.0848C50.8817 82.9655 52.3384 81.5088 52.3384 79.712V63.4442C52.3384 61.6473 50.8817 60.1907 49.0848 60.1907Z" fill="url(#paint6_linear_104_1467)"/>
<path d="M86.5008 76.4583H73.4866V32.5354C73.4866 30.8097 72.8011 29.1546 71.5807 27.9342C70.3604 26.7139 68.7053 26.0284 66.9795 26.0284H62.0992V22.7748C62.0992 20.1861 63.1276 17.7035 64.958 15.873C66.7885 14.0425 69.2712 13.0142 71.8599 13.0142C74.4485 13.0142 76.9312 14.0425 78.7617 15.873C80.5922 17.7035 81.6205 20.1861 81.6205 22.7748V71.578C81.6205 72.8724 82.1347 74.1137 83.0499 75.0289C83.9652 75.9442 85.2065 76.4583 86.5008 76.4583V76.4583Z" fill="#B4CDE1"/>
<path d="M32.817 76.4584C35.5124 76.4584 37.6974 74.2734 37.6974 71.5781C37.6974 68.8827 35.5124 66.6978 32.817 66.6978C30.1217 66.6978 27.9367 68.8827 27.9367 71.5781C27.9367 74.2734 30.1217 76.4584 32.817 76.4584Z" fill="white"/>
<path d="M44.2042 73.205C45.1026 73.205 45.831 72.4766 45.831 71.5782C45.831 70.6797 45.1026 69.9514 44.2042 69.9514C43.3058 69.9514 42.5774 70.6797 42.5774 71.5782C42.5774 72.4766 43.3058 73.205 44.2042 73.205Z" fill="white"/>
<path d="M21.4297 73.205C22.3281 73.205 23.0565 72.4766 23.0565 71.5782C23.0565 70.6797 22.3281 69.9514 21.4297 69.9514C20.5312 69.9514 19.8029 70.6797 19.8029 71.5782C19.8029 72.4766 20.5312 73.205 21.4297 73.205Z" fill="white"/>
<path d="M63.726 58.5638H60.4724C59.574 58.5638 58.8456 59.2922 58.8456 60.1906V61.8174C58.8456 62.7158 59.574 63.4442 60.4724 63.4442H63.726C64.6244 63.4442 65.3527 62.7158 65.3527 61.8174V60.1906C65.3527 59.2922 64.6244 58.5638 63.726 58.5638Z" fill="white"/>
<path d="M63.726 68.3245H60.4724C59.574 68.3245 58.8456 69.0528 58.8456 69.9512V71.578C58.8456 72.4765 59.574 73.2048 60.4724 73.2048H63.726C64.6244 73.2048 65.3527 72.4765 65.3527 71.578V69.9512C65.3527 69.0528 64.6244 68.3245 63.726 68.3245Z" fill="white"/>
<path d="M63.726 78.0851H60.4724C59.574 78.0851 58.8456 78.8134 58.8456 79.7119V81.3386C58.8456 82.2371 59.574 82.9654 60.4724 82.9654H63.726C64.6244 82.9654 65.3527 82.2371 65.3527 81.3386V79.7119C65.3527 78.8134 64.6244 78.0851 63.726 78.0851Z" fill="white"/>
<path d="M63.7258 40.6692H34.4439C33.5454 40.6692 32.8171 41.3975 32.8171 42.296V48.8031C32.8171 49.7015 33.5454 50.4298 34.4439 50.4298H63.7258C64.6242 50.4298 65.3526 49.7015 65.3526 48.8031V42.296C65.3526 41.3975 64.6242 40.6692 63.7258 40.6692Z" fill="#D7E9F7"/>
<path d="M65.3526 35.7889H32.8171C32.3856 35.7889 31.9718 35.6176 31.6668 35.3125C31.3617 35.0074 31.1903 34.5936 31.1903 34.1622C31.1903 33.7307 31.3617 33.3169 31.6668 33.0119C31.9718 32.7068 32.3856 32.5354 32.8171 32.5354H65.3526C65.784 32.5354 66.1978 32.7068 66.5029 33.0119C66.8079 33.3169 66.9793 33.7307 66.9793 34.1622C66.9793 34.5936 66.8079 35.0074 66.5029 35.3125C66.1978 35.6176 65.784 35.7889 65.3526 35.7889Z" fill="white"/>
<defs>
<linearGradient id="paint0_linear_104_1467" x1="49.0849" y1="91.0993" x2="49.0849" y2="26.0283" gradientUnits="userSpaceOnUse">
<stop stop-color="#54A5FF"/>
<stop offset="1" stop-color="#8AD3FE"/>
</linearGradient>
<linearGradient id="paint1_linear_104_1467" x1="24.6833" y1="26.0283" x2="87.1514" y2="72.8794" gradientUnits="userSpaceOnUse">
<stop stop-color="#2AA6DA"/>
<stop offset="1" stop-color="#1B7B77"/>
</linearGradient>
<linearGradient id="paint2_linear_104_1467" x1="24.6833" y1="25.7271" x2="70.2652" y2="92.9813" gradientUnits="userSpaceOnUse">
<stop stop-color="#028090"/>
<stop offset="1" stop-color="#00BFB2"/>
</linearGradient>
<linearGradient id="paint3_linear_104_1467" x1="53.965" y1="32.5354" x2="53.965" y2="13.0142" gradientUnits="userSpaceOnUse">
<stop stop-color="#D3E6F5"/>
<stop offset="1" stop-color="#F0F7FC"/>
</linearGradient>
<linearGradient id="paint4_linear_104_1467" x1="598.935" y1="375.785" x2="598.935" y2="349.757" gradientUnits="userSpaceOnUse">
<stop stop-color="#D3E6F5"/>
<stop offset="1" stop-color="#F0F7FC"/>
</linearGradient>
<linearGradient id="paint5_linear_104_1467" x1="32.8171" y1="82.9655" x2="32.8171" y2="60.1907" gradientUnits="userSpaceOnUse">
<stop stop-color="#FE9661"/>
<stop offset="1" stop-color="#FFB369"/>
</linearGradient>
<linearGradient id="paint6_linear_104_1467" x1="13.2958" y1="60.1907" x2="33.1205" y2="94.1759" gradientUnits="userSpaceOnUse">
<stop stop-color="#FFC200"/>
<stop offset="1" stop-color="#FA0026"/>
</linearGradient>
</defs>
</svg>
