<svg width="105" height="105" viewBox="0 0 105 105" fill="none" xmlns="http://www.w3.org/2000/svg">
<path d="M91.2758 42.2962V60.1907C91.2758 59.7592 91.1045 59.3455 90.7994 59.0404C90.4943 58.7353 90.0805 58.5639 89.6491 58.5639H83.142V50.4301C81.4162 50.4301 79.7611 49.7445 78.5408 48.5242C77.3204 47.3039 76.6349 45.6487 76.6349 43.923H27.8316C27.8316 45.6487 27.1461 47.3039 25.9258 48.5242C24.7054 49.7445 23.0503 50.4301 21.3245 50.4301V69.9513C23.0503 69.9513 24.7054 70.6369 25.9258 71.8572C27.1461 73.0775 27.8316 74.7326 27.8316 76.4584H49.4515C48.6511 79.155 48.8771 82.0524 50.0859 84.5923H19.6978C17.972 84.5923 16.3169 83.9067 15.0966 82.6864C13.8762 81.4661 13.1907 79.811 13.1907 78.0852V42.2962C13.1907 40.5704 13.8762 38.9153 15.0966 37.695C16.3169 36.4747 17.972 35.7891 19.6978 35.7891H84.7687C85.0556 35.7643 85.3441 35.7643 85.6309 35.7891C87.2033 35.9992 88.6448 36.7765 89.6843 37.9748C90.7238 39.1731 91.2898 40.7099 91.2758 42.2962V42.2962Z" fill="url(#paint0_linear_104_1436)"/>
<path d="M91.2758 42.2962V60.1907C91.2758 59.7592 91.1045 59.3455 90.7994 59.0404C90.4943 58.7353 90.0805 58.5639 89.6491 58.5639H83.142V50.4301C81.4162 50.4301 79.7611 49.7445 78.5408 48.5242C77.3204 47.3039 76.6349 45.6487 76.6349 43.923H27.8316C27.8316 45.6487 27.1461 47.3039 25.9258 48.5242C24.7054 49.7445 23.0503 50.4301 21.3245 50.4301V69.9513C23.0503 69.9513 24.7054 70.6369 25.9258 71.8572C27.1461 73.0775 27.8316 74.7326 27.8316 76.4584H49.4515C48.6511 79.155 48.8771 82.0524 50.0859 84.5923H19.6978C17.972 84.5923 16.3169 83.9067 15.0966 82.6864C13.8762 81.4661 13.1907 79.811 13.1907 78.0852V42.2962C13.1907 40.5704 13.8762 38.9153 15.0966 37.695C16.3169 36.4747 17.972 35.7891 19.6978 35.7891H84.7687C85.0556 35.7643 85.3441 35.7643 85.6309 35.7891C87.2033 35.9992 88.6448 36.7765 89.6843 37.9748C90.7238 39.1731 91.2898 40.7099 91.2758 42.2962V42.2962Z" fill="url(#paint1_linear_104_1436)"/>
<path d="M91.2758 42.2962V60.1907C91.2758 59.7592 91.1045 59.3455 90.7994 59.0404C90.4943 58.7353 90.0805 58.5639 89.6491 58.5639H83.142V50.4301C81.4162 50.4301 79.7611 49.7445 78.5408 48.5242C77.3204 47.3039 76.6349 45.6487 76.6349 43.923H27.8316C27.8316 45.6487 27.1461 47.3039 25.9258 48.5242C24.7054 49.7445 23.0503 50.4301 21.3245 50.4301V69.9513C23.0503 69.9513 24.7054 70.6369 25.9258 71.8572C27.1461 73.0775 27.8316 74.7326 27.8316 76.4584H49.4515C48.6511 79.155 48.8771 82.0524 50.0859 84.5923H19.6978C17.972 84.5923 16.3169 83.9067 15.0966 82.6864C13.8762 81.4661 13.1907 79.811 13.1907 78.0852V42.2962C13.1907 40.5704 13.8762 38.9153 15.0966 37.695C16.3169 36.4747 17.972 35.7891 19.6978 35.7891H84.7687C85.0556 35.7643 85.3441 35.7643 85.6309 35.7891C87.2033 35.9992 88.6448 36.7765 89.6843 37.9748C90.7238 39.1731 91.2898 40.7099 91.2758 42.2962V42.2962Z" fill="url(#paint2_linear_104_1436)"/>
<path d="M85.6316 35.789C85.3447 35.7642 85.0562 35.7642 84.7694 35.789H76.2125L70.8604 26.5164C69.3688 27.3726 67.5988 27.6033 65.9374 27.1583C64.276 26.7132 62.8584 25.6285 61.9945 24.1413L41.8063 35.789H25.5385L64.9553 13.0141C66.4484 12.1528 68.2224 11.9191 69.8876 12.3644C71.5529 12.8097 72.9735 13.8976 73.8374 15.3892L85.6316 35.789Z" fill="url(#paint3_linear_104_1436)"/>
<path d="M85.6316 35.789C85.3447 35.7642 85.0562 35.7642 84.7694 35.789H76.2125L70.8604 26.5164C69.3688 27.3726 67.5988 27.6033 65.9374 27.1583C64.276 26.7132 62.8584 25.6285 61.9945 24.1413L41.8063 35.789H25.5385L64.9553 13.0141C66.4484 12.1528 68.2224 11.9191 69.8876 12.3644C71.5529 12.8097 72.9735 13.8976 73.8374 15.3892L85.6316 35.789Z" fill="url(#paint4_linear_104_1436)"/>
<path d="M85.6316 35.789C85.3447 35.7642 85.0562 35.7642 84.7694 35.789H76.2125L70.8604 26.5164C69.3688 27.3726 67.5988 27.6033 65.9374 27.1583C64.276 26.7132 62.8584 25.6285 61.9945 24.1413L41.8063 35.789H25.5385L64.9553 13.0141C66.4484 12.1528 68.2224 11.9191 69.8876 12.3644C71.5529 12.8097 72.9735 13.8976 73.8374 15.3892L85.6316 35.789Z" fill="url(#paint5_linear_104_1436)"/>
<path d="M85.6316 35.789C85.3447 35.7642 85.0562 35.7642 84.7694 35.789H76.2125L70.8604 26.5164C69.3688 27.3726 67.5988 27.6033 65.9374 27.1583C64.276 26.7132 62.8584 25.6285 61.9945 24.1413L41.8063 35.789H25.5385L64.9553 13.0141C66.4484 12.1528 68.2224 11.9191 69.8876 12.3644C71.5529 12.8097 72.9735 13.8976 73.8374 15.3892L85.6316 35.789Z" fill="url(#paint6_linear_104_1436)"/>
<path d="M76.2124 35.7889H41.8061L61.9944 24.1412C62.8583 25.6329 64.2789 26.7207 65.9442 27.166C67.6095 27.6113 69.3834 27.3777 70.8765 26.5163L76.2124 35.7889Z" fill="url(#paint7_linear_104_1436)"/>
<path d="M71.755 79.7118C71.758 80.8136 71.5991 81.9098 71.2832 82.9653C71.1228 83.5262 70.9104 84.0708 70.6488 84.5921C70.116 85.7333 69.3895 86.7736 68.5014 87.6667C67.2188 88.9757 65.6391 89.9558 63.8966 90.5237C62.1541 91.0917 60.3003 91.2306 58.4926 90.9288C56.6849 90.627 54.9768 89.8933 53.5133 88.7901C52.0498 87.6869 50.8742 86.2468 50.0864 84.5921C48.8775 82.0522 48.6515 79.1548 49.4519 76.4582C49.9261 74.8628 50.7443 73.3907 51.8489 72.1455C52.9535 70.9004 54.3176 69.9126 55.8451 69.2516L56.1217 69.1377C57.4721 68.598 58.9133 68.3219 60.3676 68.3244C61.8836 68.3263 63.384 68.6309 64.7807 69.2203C66.1774 69.8097 67.4424 70.6721 68.5014 71.7569C69.3895 72.65 70.116 73.6902 70.6488 74.8315C70.9104 75.3528 71.1228 75.8974 71.2832 76.4582C71.5991 77.5138 71.758 78.61 71.755 79.7118Z" fill="url(#paint8_linear_104_1436)"/>
<path d="M71.755 79.7118C71.758 80.8136 71.5991 81.9098 71.2832 82.9653C71.1228 83.5262 70.9104 84.0708 70.6488 84.5921C70.116 85.7333 69.3895 86.7736 68.5014 87.6667C67.2188 88.9757 65.6391 89.9558 63.8966 90.5237C62.1541 91.0917 60.3003 91.2306 58.4926 90.9288C56.6849 90.627 54.9768 89.8933 53.5133 88.7901C52.0498 87.6869 50.8742 86.2468 50.0864 84.5921C48.8775 82.0522 48.6515 79.1548 49.4519 76.4582C49.9261 74.8628 50.7443 73.3907 51.8489 72.1455C52.9535 70.9004 54.3176 69.9126 55.8451 69.2516L56.1217 69.1377C57.4721 68.598 58.9133 68.3219 60.3676 68.3244C61.8836 68.3263 63.384 68.6309 64.7807 69.2203C66.1774 69.8097 67.4424 70.6721 68.5014 71.7569C69.3895 72.65 70.116 73.6902 70.6488 74.8315C70.9104 75.3528 71.1228 75.8974 71.2832 76.4582C71.5991 77.5138 71.758 78.61 71.755 79.7118Z" fill="url(#paint9_linear_104_1436)"/>
<path d="M91.2758 84.5921V89.4724C91.2758 89.9039 91.1044 90.3177 90.7993 90.6227C90.4942 90.9278 90.0804 91.0992 89.649 91.0992H70.1277C69.6962 91.0992 69.2825 90.9278 68.9774 90.6227C68.6723 90.3177 68.5009 89.9039 68.5009 89.4724V87.6667C69.389 86.7736 70.1155 85.7333 70.6483 84.5921C70.9099 84.0708 71.1223 83.5262 71.2827 82.9653H89.649C90.0804 82.9653 90.4942 83.1367 90.7993 83.4418C91.1044 83.7469 91.2758 84.1607 91.2758 84.5921Z" fill="url(#paint10_linear_104_1436)"/>
<path d="M91.2758 84.5921V89.4724C91.2758 89.9039 91.1044 90.3177 90.7993 90.6227C90.4942 90.9278 90.0804 91.0992 89.649 91.0992H70.1277C69.6962 91.0992 69.2825 90.9278 68.9774 90.6227C68.6723 90.3177 68.5009 89.9039 68.5009 89.4724V87.6667C69.389 86.7736 70.1155 85.7333 70.6483 84.5921C70.9099 84.0708 71.1223 83.5262 71.2827 82.9653H89.649C90.0804 82.9653 90.4942 83.1367 90.7993 83.4418C91.1044 83.7469 91.2758 84.1607 91.2758 84.5921Z" fill="url(#paint11_linear_104_1436)"/>
<path d="M91.2763 76.4584V81.3388C91.2763 81.7702 91.1049 82.184 90.7998 82.4891C90.4947 82.7941 90.081 82.9655 89.6495 82.9655H71.2832C71.9162 80.8427 71.9162 78.5813 71.2832 76.4584C71.1229 75.8976 70.9105 75.353 70.6488 74.8317H89.6495C90.081 74.8317 90.4947 75.0031 90.7998 75.3081C91.1049 75.6132 91.2763 76.027 91.2763 76.4584Z" fill="url(#paint12_linear_104_1436)"/>
<path d="M91.2763 76.4584V81.3388C91.2763 81.7702 91.1049 82.184 90.7998 82.4891C90.4947 82.7941 90.081 82.9655 89.6495 82.9655H71.2832C71.9162 80.8427 71.9162 78.5813 71.2832 76.4584C71.1229 75.8976 70.9105 75.353 70.6488 74.8317H89.6495C90.081 74.8317 90.4947 75.0031 90.7998 75.3081C91.1049 75.6132 91.2763 76.027 91.2763 76.4584Z" fill="url(#paint13_linear_104_1436)"/>
<path d="M91.2758 68.3245V73.2049C91.2758 73.6363 91.1044 74.0501 90.7993 74.3552C90.4942 74.6602 90.0804 74.8316 89.649 74.8316H70.6483C70.1155 73.6904 69.389 72.6501 68.5009 71.757V68.3245C68.5009 67.8931 68.6723 67.4793 68.9774 67.1742C69.2825 66.8691 69.6962 66.6978 70.1277 66.6978H89.649C90.0804 66.6978 90.4942 66.8691 90.7993 67.1742C91.1044 67.4793 91.2758 67.8931 91.2758 68.3245Z" fill="url(#paint14_linear_104_1436)"/>
<path d="M91.2758 68.3245V73.2049C91.2758 73.6363 91.1044 74.0501 90.7993 74.3552C90.4942 74.6602 90.0804 74.8316 89.649 74.8316H70.6483C70.1155 73.6904 69.389 72.6501 68.5009 71.757V68.3245C68.5009 67.8931 68.6723 67.4793 68.9774 67.1742C69.2825 66.8691 69.6962 66.6978 70.1277 66.6978H89.649C90.0804 66.6978 90.4942 66.8691 90.7993 67.1742C91.1044 67.4793 91.2758 67.8931 91.2758 68.3245Z" fill="url(#paint15_linear_104_1436)"/>
<path d="M89.649 58.5638H70.1277C69.2292 58.5638 68.5009 59.2922 68.5009 60.1906V65.0709C68.5009 65.9694 69.2292 66.6977 70.1277 66.6977H89.649C90.5474 66.6977 91.2758 65.9694 91.2758 65.0709V60.1906C91.2758 59.2922 90.5474 58.5638 89.649 58.5638Z" fill="url(#paint16_linear_104_1436)"/>
<path d="M89.649 58.5638H70.1277C69.2292 58.5638 68.5009 59.2922 68.5009 60.1906V65.0709C68.5009 65.9694 69.2292 66.6977 70.1277 66.6977H89.649C90.5474 66.6977 91.2758 65.9694 91.2758 65.0709V60.1906C91.2758 59.2922 90.5474 58.5638 89.649 58.5638Z" fill="url(#paint17_linear_104_1436)"/>
<path d="M61.1804 78.085H59.5536C59.3379 78.085 59.131 77.9993 58.9785 77.8467C58.8259 77.6942 58.7402 77.4873 58.7402 77.2716C58.7402 77.0559 58.8259 76.849 58.9785 76.6964C59.131 76.5439 59.3379 76.4582 59.5536 76.4582H63.6206C64.052 76.4582 64.4658 76.2868 64.7709 75.9817C65.0759 75.6767 65.2473 75.2629 65.2473 74.8314C65.2473 74.4 65.0759 73.9862 64.7709 73.6811C64.4658 73.376 64.052 73.2047 63.6206 73.2047H61.9938C61.9938 72.7732 61.8224 72.3594 61.5173 72.0544C61.2122 71.7493 60.7985 71.5779 60.367 71.5779C59.9356 71.5779 59.5218 71.7493 59.2167 72.0544C58.9116 72.3594 58.7402 72.7732 58.7402 73.2047C57.6616 73.3125 56.67 73.8444 55.9836 74.6834C55.2972 75.5224 54.9721 76.5997 55.08 77.6783C55.1879 78.7569 55.7198 79.7485 56.5587 80.4349C57.3977 81.1213 58.475 81.4464 59.5536 81.3385H61.1804C61.3961 81.3385 61.603 81.4242 61.7555 81.5768C61.9081 81.7293 61.9938 81.9362 61.9938 82.1519C61.9938 82.3676 61.9081 82.5745 61.7555 82.7271C61.603 82.8796 61.3961 82.9653 61.1804 82.9653H57.1135C56.682 82.9653 56.2682 83.1367 55.9632 83.4418C55.6581 83.7468 55.4867 84.1606 55.4867 84.5921C55.4867 85.0235 55.6581 85.4373 55.9632 85.7424C56.2682 86.0475 56.682 86.2188 57.1135 86.2188H58.7402C58.7402 86.6503 58.9116 87.0641 59.2167 87.3692C59.5218 87.6742 59.9356 87.8456 60.367 87.8456C60.7985 87.8456 61.2122 87.6742 61.5173 87.3692C61.8224 87.0641 61.9938 86.6503 61.9938 86.2188C62.5279 86.1654 63.0462 86.0074 63.5192 85.7536C63.9922 85.4999 64.4105 85.1555 64.7504 84.7401C65.0903 84.3247 65.345 83.8464 65.5001 83.3325C65.6551 82.8187 65.7074 82.2793 65.654 81.7452C65.6006 81.2111 65.4425 80.6928 65.1888 80.2198C64.9351 79.7468 64.5907 79.3285 64.1753 78.9886C63.7599 78.6487 63.2816 78.394 62.7677 78.2389C62.2538 78.0839 61.7145 78.0316 61.1804 78.085V78.085Z" fill="white"/>
<path d="M76.6348 43.9229H27.8316C27.8316 45.6486 27.1461 47.3037 25.9257 48.5241C24.7054 49.7444 23.0503 50.4299 21.3245 50.4299V69.9512C23.0503 69.9512 24.7054 70.6368 25.9257 71.8571C27.1461 73.0774 27.8316 74.7325 27.8316 76.4583H49.4515C49.9257 74.8629 50.7439 73.3908 51.8484 72.1457C52.953 70.9005 54.3171 69.9127 55.8447 69.2517C54.6973 69.716 53.4709 69.9535 52.2332 69.9512C49.8174 69.9544 47.4862 69.0616 45.6906 67.4454C43.8949 65.8292 42.7625 63.6046 42.5122 61.2017C42.2619 58.7989 42.9117 56.3886 44.3357 54.4371C45.7598 52.4855 47.857 51.1315 50.2216 50.6368C52.5863 50.1421 55.0504 50.5419 57.1373 51.7589C59.2242 52.9759 60.7857 54.9236 61.5196 57.2253C62.2536 59.5269 62.1079 62.019 61.1107 64.2194C60.1135 66.4199 58.3357 68.1723 56.1212 69.1378C57.4716 68.5981 58.9129 68.322 60.3671 68.3245C61.8831 68.3264 63.3835 68.631 64.7802 69.2204C66.177 69.8098 67.4419 70.6722 68.501 71.757V68.3245C68.501 67.893 68.6724 67.4792 68.9774 67.1742C69.2825 66.8691 69.6963 66.6977 70.1277 66.6977C69.6963 66.6977 69.2825 66.5263 68.9774 66.2212C68.6724 65.9161 68.501 65.5024 68.501 65.0709V60.1906C68.501 59.7591 68.6724 59.3454 68.9774 59.0403C69.2825 58.7352 69.6963 58.5638 70.1277 58.5638H83.1419V50.4299C81.4162 50.4299 79.761 49.7444 78.5407 48.5241C77.3204 47.3037 76.6348 45.6486 76.6348 43.9229ZM32.7119 63.4441C32.0685 63.4441 31.4394 63.2533 30.9044 62.8958C30.3693 62.5383 29.9523 62.0302 29.7061 61.4357C29.4598 60.8412 29.3954 60.187 29.5209 59.5559C29.6464 58.9247 29.9563 58.345 30.4113 57.89C30.8664 57.435 31.4461 57.1251 32.0772 56.9996C32.7083 56.874 33.3625 56.9385 33.957 57.1847C34.5515 57.431 35.0597 57.848 35.4172 58.383C35.7747 58.9181 35.9655 59.5471 35.9655 60.1906C35.9655 61.0535 35.6227 61.881 35.0125 62.4912C34.4024 63.1014 33.5748 63.4441 32.7119 63.4441Z" fill="url(#paint18_linear_104_1436)"/>
<path d="M61.9944 60.1906C61.9933 62.0918 61.4369 63.9514 60.3937 65.5409C59.3504 67.1303 57.8656 68.3805 56.1217 69.1378L55.8452 69.2517C54.6978 69.7159 53.4714 69.9535 52.2337 69.9512C50.3033 69.9512 48.4161 69.3788 46.811 68.3063C45.2059 67.2337 43.9548 65.7093 43.2161 63.9258C42.4773 62.1423 42.284 60.1798 42.6606 58.2864C43.0373 56.393 43.9669 54.6538 45.3319 53.2888C46.697 51.9237 48.4361 50.9941 50.3295 50.6175C52.2229 50.2409 54.1854 50.4342 55.969 51.1729C57.7525 51.9117 59.2769 53.1627 60.3494 54.7679C61.4219 56.373 61.9944 58.2601 61.9944 60.1906V60.1906Z" fill="white"/>
<path d="M61.9944 60.1906C61.9933 62.0918 61.4369 63.9514 60.3937 65.5409C59.3504 67.1303 57.8656 68.3805 56.1217 69.1378L55.8452 69.2517C54.6978 69.7159 53.4714 69.9535 52.2337 69.9512C50.3033 69.9512 48.4161 69.3788 46.811 68.3063C45.2059 67.2337 43.9548 65.7093 43.2161 63.9258C42.4773 62.1423 42.284 60.1798 42.6606 58.2864C43.0373 56.393 43.9669 54.6538 45.3319 53.2888C46.697 51.9237 48.4361 50.9941 50.3295 50.6175C52.2229 50.2409 54.1854 50.4342 55.969 51.1729C57.7525 51.9117 59.2769 53.1627 60.3494 54.7679C61.4219 56.373 61.9944 58.2601 61.9944 60.1906V60.1906Z" fill="url(#paint19_linear_104_1436)"/>
<path d="M61.9944 60.1906C61.9933 62.0918 61.4369 63.9514 60.3937 65.5409C59.3504 67.1303 57.8656 68.3805 56.1217 69.1378L55.8452 69.2517C54.6978 69.7159 53.4714 69.9535 52.2337 69.9512C50.3033 69.9512 48.4161 69.3788 46.811 68.3063C45.2059 67.2337 43.9548 65.7093 43.2161 63.9258C42.4773 62.1423 42.284 60.1798 42.6606 58.2864C43.0373 56.393 43.9669 54.6538 45.3319 53.2888C46.697 51.9237 48.4361 50.9941 50.3295 50.6175C52.2229 50.2409 54.1854 50.4342 55.969 51.1729C57.7525 51.9117 59.2769 53.1627 60.3494 54.7679C61.4219 56.373 61.9944 58.2601 61.9944 60.1906V60.1906Z" fill="url(#paint20_linear_104_1436)"/>
<path d="M32.712 63.4442C32.0685 63.4442 31.4395 63.2534 30.9044 62.8959C30.3694 62.5384 29.9524 62.0303 29.7061 61.4358C29.4598 60.8413 29.3954 60.1871 29.521 59.5559C29.6465 58.9248 29.9564 58.3451 30.4114 57.8901C30.8664 57.4351 31.4461 57.1252 32.0772 56.9997C32.7084 56.8741 33.3626 56.9385 33.9571 57.1848C34.5516 57.4311 35.0597 57.8481 35.4172 58.3831C35.7747 58.9182 35.9655 59.5472 35.9655 60.1907C35.9655 61.0536 35.6227 61.8811 35.0126 62.4913C34.4024 63.1014 33.5749 63.4442 32.712 63.4442Z" fill="white"/>
<path d="M32.712 63.4442C32.0685 63.4442 31.4395 63.2534 30.9044 62.8959C30.3694 62.5384 29.9524 62.0303 29.7061 61.4358C29.4598 60.8413 29.3954 60.1871 29.521 59.5559C29.6465 58.9248 29.9564 58.3451 30.4114 57.8901C30.8664 57.4351 31.4461 57.1252 32.0772 56.9997C32.7084 56.8741 33.3626 56.9385 33.9571 57.1848C34.5516 57.4311 35.0597 57.8481 35.4172 58.3831C35.7747 58.9182 35.9655 59.5472 35.9655 60.1907C35.9655 61.0536 35.6227 61.8811 35.0126 62.4913C34.4024 63.1014 33.5749 63.4442 32.712 63.4442Z" fill="url(#paint21_linear_104_1436)"/>
<path d="M32.712 63.4442C32.0685 63.4442 31.4395 63.2534 30.9044 62.8959C30.3694 62.5384 29.9524 62.0303 29.7061 61.4358C29.4598 60.8413 29.3954 60.1871 29.521 59.5559C29.6465 58.9248 29.9564 58.3451 30.4114 57.8901C30.8664 57.4351 31.4461 57.1252 32.0772 56.9997C32.7084 56.8741 33.3626 56.9385 33.9571 57.1848C34.5516 57.4311 35.0597 57.8481 35.4172 58.3831C35.7747 58.9182 35.9655 59.5472 35.9655 60.1907C35.9655 61.0536 35.6227 61.8811 35.0126 62.4913C34.4024 63.1014 33.5749 63.4442 32.712 63.4442Z" fill="url(#paint22_linear_104_1436)"/>
<defs>
<linearGradient id="paint0_linear_104_1436" x1="-10.335" y1="14.0152" x2="44.0069" y2="111.061" gradientUnits="userSpaceOnUse">
<stop stop-color="#2AA6DA"/>
<stop offset="1" stop-color="#1B7B77"/>
</linearGradient>
<linearGradient id="paint1_linear_104_1436" x1="13.1907" y1="35.5445" x2="34.4473" y2="102.427" gradientUnits="userSpaceOnUse">
<stop stop-color="#028090"/>
<stop offset="1" stop-color="#00BFB2"/>
</linearGradient>
<linearGradient id="paint2_linear_104_1436" x1="13.1907" y1="35.5445" x2="34.4473" y2="102.427" gradientUnits="userSpaceOnUse">
<stop stop-color="#028090"/>
<stop offset="1" stop-color="#00BFB2"/>
</linearGradient>
<linearGradient id="paint3_linear_104_1436" x1="2072.31" y1="533.289" x2="2072.31" y2="189.011" gradientUnits="userSpaceOnUse">
<stop stop-color="#54A5FF"/>
<stop offset="1" stop-color="#8AD3FE"/>
</linearGradient>
<linearGradient id="paint4_linear_104_1436" x1="25.5385" y1="12.1436" x2="41.6518" y2="53.0942" gradientUnits="userSpaceOnUse">
<stop stop-color="#2AA6DA"/>
<stop offset="1" stop-color="#1B7B77"/>
</linearGradient>
<linearGradient id="paint5_linear_104_1436" x1="25.5385" y1="12.0341" x2="32.3975" y2="46.327" gradientUnits="userSpaceOnUse">
<stop stop-color="#028090"/>
<stop offset="1" stop-color="#00BFB2"/>
</linearGradient>
<linearGradient id="paint6_linear_104_1436" x1="25.5385" y1="12.0341" x2="32.3975" y2="46.327" gradientUnits="userSpaceOnUse">
<stop stop-color="#028090"/>
<stop offset="1" stop-color="#00BFB2"/>
</linearGradient>
<linearGradient id="paint7_linear_104_1436" x1="59.0174" y1="35.7889" x2="59.0174" y2="24.1412" gradientUnits="userSpaceOnUse">
<stop stop-color="#D3E6F5"/>
<stop offset="1" stop-color="#F0F7FC"/>
</linearGradient>
<linearGradient id="paint8_linear_104_1436" x1="60.3676" y1="91.0992" x2="60.3676" y2="68.3244" gradientUnits="userSpaceOnUse">
<stop stop-color="#FE9661"/>
<stop offset="1" stop-color="#FFB369"/>
</linearGradient>
<linearGradient id="paint9_linear_104_1436" x1="48.9812" y1="68.3243" x2="71.7411" y2="91.0982" gradientUnits="userSpaceOnUse">
<stop stop-color="#FFC200"/>
<stop offset="1" stop-color="#FA0026"/>
</linearGradient>
<linearGradient id="paint10_linear_104_1436" x1="1184.47" y1="82.9653" x2="1184.47" y2="497.793" gradientUnits="userSpaceOnUse">
<stop stop-color="#FE9661"/>
<stop offset="1" stop-color="#FFB369"/>
</linearGradient>
<linearGradient id="paint11_linear_104_1436" x1="68.5009" y1="82.9653" x2="73.6536" y2="97.3928" gradientUnits="userSpaceOnUse">
<stop stop-color="#FFC200"/>
<stop offset="1" stop-color="#FA0026"/>
</linearGradient>
<linearGradient id="paint12_linear_104_1436" x1="1095.01" y1="489.659" x2="1095.01" y2="448.99" gradientUnits="userSpaceOnUse">
<stop stop-color="#FE9661"/>
<stop offset="1" stop-color="#FFB369"/>
</linearGradient>
<linearGradient id="paint13_linear_104_1436" x1="70.6488" y1="74.8317" x2="76.2003" y2="88.9103" gradientUnits="userSpaceOnUse">
<stop stop-color="#FFC200"/>
<stop offset="1" stop-color="#FA0026"/>
</linearGradient>
<linearGradient id="paint14_linear_104_1436" x1="1184.47" y1="440.856" x2="1184.47" y2="400.186" gradientUnits="userSpaceOnUse">
<stop stop-color="#FE9661"/>
<stop offset="1" stop-color="#FFB369"/>
</linearGradient>
<linearGradient id="paint15_linear_104_1436" x1="68.5009" y1="66.6978" x2="73.6536" y2="81.1253" gradientUnits="userSpaceOnUse">
<stop stop-color="#FFC200"/>
<stop offset="1" stop-color="#FA0026"/>
</linearGradient>
<linearGradient id="paint16_linear_104_1436" x1="1184.47" y1="392.053" x2="1184.47" y2="351.383" gradientUnits="userSpaceOnUse">
<stop stop-color="#FE9661"/>
<stop offset="1" stop-color="#FFB369"/>
</linearGradient>
<linearGradient id="paint17_linear_104_1436" x1="68.5009" y1="58.5638" x2="73.6536" y2="72.9913" gradientUnits="userSpaceOnUse">
<stop stop-color="#FFC200"/>
<stop offset="1" stop-color="#FA0026"/>
</linearGradient>
<linearGradient id="paint18_linear_104_1436" x1="1999.48" y1="1573.09" x2="1999.48" y2="922.381" gradientUnits="userSpaceOnUse">
<stop stop-color="#D3E6F5"/>
<stop offset="1" stop-color="#F0F7FC"/>
</linearGradient>
<linearGradient id="paint19_linear_104_1436" x1="42.4731" y1="50.4299" x2="61.9944" y2="69.9512" gradientUnits="userSpaceOnUse">
<stop stop-color="#2AA6DA"/>
<stop offset="1" stop-color="#1B7B77"/>
</linearGradient>
<linearGradient id="paint20_linear_104_1436" x1="42.4731" y1="50.3396" x2="54.3669" y2="73.738" gradientUnits="userSpaceOnUse">
<stop stop-color="#028090"/>
<stop offset="1" stop-color="#00BFB2"/>
</linearGradient>
<linearGradient id="paint21_linear_104_1436" x1="29.4584" y1="56.9371" x2="35.9655" y2="63.4442" gradientUnits="userSpaceOnUse">
<stop stop-color="#2AA6DA"/>
<stop offset="1" stop-color="#1B7B77"/>
</linearGradient>
<linearGradient id="paint22_linear_104_1436" x1="29.4584" y1="56.907" x2="33.423" y2="64.7065" gradientUnits="userSpaceOnUse">
<stop stop-color="#028090"/>
<stop offset="1" stop-color="#00BFB2"/>
</linearGradient>
</defs>
</svg>
